# xmcd
#
# Track frame offsets: 
#        150
#        17729
#        34908
#        52445
#        71389
#        87942
#        107654
#        125205
#        140675
#        159362
#        176944
#        195727
#        215465
#        234720
#        253476
#        270691
#
# Disc length: 3781 seconds
#
# Revision: 0
# Processed by: cddbd v1.5.2PL0 Copyright (c) Steve Scherf et al.
# Submitted via: ExactAudioCopyFreeDBPlugin 1.0
#
DISCID=fd0ec310
DTITLE=32A - STE20试音极品TESTCD
DYEAR=2015
DGENRE=STE
TTITLE0=群星 - 敖包相会
TTITLE1=群星 - 掀起你的盖头来
TTITLE2=群星 - 南泥湾
TTITLE3=群星 - 相思河畔
TTITLE4=群星 - 小白船
TTITLE5=群星 - 家乡
TTITLE6=群星 - 你呀！你呀
TTITLE7=群星 - 洗衣歌
TTITLE8=群星 - 外婆的澎湖湾
TTITLE9=群星 - 月光小夜曲
TTITLE10=群星 - 美丽的梭罗河
TTITLE11=群星 - 莫斯科郊外的晚上
TTITLE12=群星 - 三套车
TTITLE13=群星 - 微山湖
TTITLE14=群星 - 牧羊姑娘
TTITLE15=群星 - 打起手鼓唱起歌
EXTD=
EXTT0=
EXTT1=
EXTT2=
EXTT3=
EXTT4=
EXTT5=
EXTT6=
EXTT7=
EXTT8=
EXTT9=
EXTT10=
EXTT11=
EXTT12=
EXTT13=
EXTT14=
EXTT15=
PLAYORDER=
